<svg xmlns="http://www.w3.org/2000/svg" viewBox="0 0 1057.68 215.11"><g id="Layer_2" data-name="Layer 2"><g id="Layer_1-2" data-name="Layer 1"><path d="M183.61,31.5A107.24,107.24,0,0,0,107.55,0H38A38,38,0,0,0,0,38V177.16a38,38,0,0,0,38,38H64.38V64.38h42.68a43.83,43.83,0,0,1,31.34,13,42.86,42.86,0,0,1,12.31,28.73,43.18,43.18,0,0,1-43.16,44.66h0A26.87,26.87,0,0,0,82.46,168L64.38,215.11h43.17A107.56,107.56,0,0,0,183.61,31.5Z"/><path d="M296.12,201.36a101.5,101.5,0,0,1-38.66-37.93q-14.31-24.35-14.31-54.74t14.31-54.6a101.8,101.8,0,0,1,38.66-37.77,112.43,112.43,0,0,1,107.13,0,99.73,99.73,0,0,1,38.37,37.77q14,24.21,14,54.6t-14.16,54.74a100.75,100.75,0,0,1-38.37,37.93q-24.19,13.57-53.41,13.57A108.14,108.14,0,0,1,296.12,201.36Zm93.26-49q14.89-16.53,14.91-43.68,0-27.45-14.91-43.83T349.69,48.48q-25.1,0-40,16.24t-14.9,44q0,27.45,14.9,43.82t40,16.38Q374.47,168.89,389.38,152.37Z"/><path d="M633.3,105.29Q625,120.2,607.92,129.35t-42.5,9.15h0a59,59,0,0,0-48.85,25.88l-32.9,48.49h0V5.69h81.75q24.8,0,41.91,8.56T633,37.86q8.57,15,8.56,34.53A66.77,66.77,0,0,1,633.3,105.29ZM583.13,91.57q7.08-6.78,7.08-19.18t-7.08-19.18q-7.1-6.8-21.55-6.79H534.14V98.36h27.44Q576,98.36,583.13,91.57Z"/><path d="M712.24,201.36a101.5,101.5,0,0,1-38.66-37.93q-14.33-24.35-14.31-54.74t14.31-54.6a101.8,101.8,0,0,1,38.66-37.77,112.43,112.43,0,0,1,107.13,0,99.64,99.64,0,0,1,38.36,37.77q14,24.21,14,54.6t-14.16,54.74a100.82,100.82,0,0,1-38.37,37.93Q795,214.94,765.8,214.93A108.13,108.13,0,0,1,712.24,201.36Zm93.26-49q14.89-16.53,14.9-43.68,0-27.45-14.9-43.83T765.8,48.48q-25.08,0-40,16.24t-14.9,44q0,27.45,14.9,43.82t40,16.38Q790.6,168.89,805.5,152.37Z"/><path d="M1049.42,105.29q-8.28,14.91-25.39,24.06t-42.49,9.15h0a59,59,0,0,0-48.85,25.88l-32.9,48.49h0V5.69h81.75q24.78,0,41.9,8.56t25.68,23.61q8.57,15,8.56,34.53A66.77,66.77,0,0,1,1049.42,105.29ZM999.24,91.57q7.1-6.78,7.09-19.18t-7.09-19.18q-7.08-6.8-21.54-6.79H950.25V98.36H977.7Q992.16,98.36,999.24,91.57Z"/></g></g></svg>