<svg xmlns="http://www.w3.org/2000/svg" viewBox="0 0 372.14 77.38"><defs><style>.cls-1{fill:#fff;}</style></defs><g id="Layer_2" data-name="Layer 2"><g id="Layer_1-2" data-name="Layer 1"><path class="cls-1" d="M49.18,5.81A33.88,33.88,0,0,1,63,19.1a39.13,39.13,0,0,1,4.9,19.75A39.16,39.16,0,0,1,63,58.54,33.65,33.65,0,0,1,49.13,71.89,44,44,0,0,1,28.3,76.62H12.65A12.64,12.64,0,0,1,0,64V13.72A12.64,12.64,0,0,1,12.65,1.08H28.3A44,44,0,0,1,49.18,5.81ZM43.37,55q5.81-5.7,5.81-16.14T43.37,22.6q-5.8-5.8-16.25-5.81H18.4V60.7h8.72Q37.56,60.7,43.37,55Z"/><path class="cls-1" d="M94.43,72.43A37,37,0,0,1,80.34,58.6a38.65,38.65,0,0,1-5.22-20,38.34,38.34,0,0,1,5.22-19.9A37.13,37.13,0,0,1,94.43,5,41,41,0,0,1,133.5,5a36.32,36.32,0,0,1,14,13.78,39,39,0,0,1,5.11,19.9,39,39,0,0,1-5.16,20,36.79,36.79,0,0,1-14,13.83,40.92,40.92,0,0,1-39,0Zm34-17.87q5.43-6,5.44-15.93t-5.44-16q-5.43-6-14.47-6T99.38,22.6Q94,28.53,94,38.63t5.43,16q5.45,6,14.59,6T128.44,54.56Z"/><path class="cls-1" d="M217.39,37.4a22.17,22.17,0,0,1-9.26,8.77q-6.24,3.33-15.49,3.33h0a21.55,21.55,0,0,0-17.82,9.44l-12,17.68h0V1.08h29.81q9,0,15.28,3.12a21.44,21.44,0,0,1,9.36,8.61A25,25,0,0,1,220.4,25.4,24.32,24.32,0,0,1,217.39,37.4Zm-18.3-5a9.2,9.2,0,0,0,2.59-7,9.21,9.21,0,0,0-2.59-7q-2.58-2.47-7.85-2.47h-10V34.87h10Q196.51,34.87,199.09,32.39Z"/><path class="cls-1" d="M246.18,72.43a37,37,0,0,1-14.1-13.83,38.65,38.65,0,0,1-5.22-20,38.34,38.34,0,0,1,5.22-19.9A37.09,37.09,0,0,1,246.18,5a41,41,0,0,1,39.06,0,36.32,36.32,0,0,1,14,13.78,39,39,0,0,1,5.11,19.9,39,39,0,0,1-5.16,20,36.79,36.79,0,0,1-14,13.83,40.9,40.9,0,0,1-39,0Zm34-17.87q5.44-6,5.44-15.93t-5.44-16q-5.43-6-14.47-6T251.13,22.6q-5.44,5.92-5.44,16t5.44,16q5.43,6,14.58,6T280.18,54.56Z"/><path class="cls-1" d="M369.13,37.4a22.17,22.17,0,0,1-9.26,8.77q-6.24,3.33-15.49,3.33h0a21.55,21.55,0,0,0-17.82,9.44l-12,17.68h0V1.08h29.81q9,0,15.28,3.12A21.44,21.44,0,0,1,369,12.81a25,25,0,0,1,3.12,12.59A24.32,24.32,0,0,1,369.13,37.4Zm-18.3-5a9.2,9.2,0,0,0,2.59-7,9.21,9.21,0,0,0-2.59-7q-2.58-2.47-7.85-2.47H333V34.87h10Q348.25,34.87,350.83,32.39Z"/></g></g></svg>