<svg xmlns="http://www.w3.org/2000/svg" width="199.674" height="40.844" viewBox="0 0 199.674 40.844">
  <g id="Group_3" data-name="Group 3" transform="translate(-2212.558 -779.403)">
    <path id="Path_1" data-name="Path 1" d="M2247.4,785.48a20.347,20.347,0,0,0-14.433-5.98h-13.21a7.2,7.2,0,0,0-7.2,7.2v26.42a7.2,7.2,0,0,0,7.2,7.2h2.637V789.34h10.573a10.572,10.572,0,0,1,10.567,10.881,10.691,10.691,0,0,1-10.754,10.265,9.64,9.64,0,0,0-9.014,6.224l-1.371,3.616h10.573A20.411,20.411,0,0,0,2247.4,785.48Z" transform="translate(0 -0.078)"/>
    <path id="Path_2" data-name="Path 2" d="M2452.053,817.757a19.494,19.494,0,0,1-7.428-7.287,21.437,21.437,0,0,1,0-21.01,19.566,19.566,0,0,1,7.428-7.259,21.611,21.611,0,0,1,20.585,0,19.159,19.159,0,0,1,7.372,7.259,21.731,21.731,0,0,1-.028,21.01,19.354,19.354,0,0,1-7.372,7.287,21.552,21.552,0,0,1-20.557,0Zm17.92-9.413a13.772,13.772,0,0,0,0-16.814,9.812,9.812,0,0,0-7.627-3.147,9.924,9.924,0,0,0-7.684,3.119,13.855,13.855,0,0,0,0,16.87,9.879,9.879,0,0,0,7.684,3.148A9.769,9.769,0,0,0,2469.973,808.344Z" transform="translate(-184.592 -0.153)"/>
    <path id="Path_3" data-name="Path 3" d="M2859.283,817.757a19.5,19.5,0,0,1-7.428-7.287,21.435,21.435,0,0,1,0-21.01,19.567,19.567,0,0,1,7.428-7.259,21.611,21.611,0,0,1,20.585,0,19.163,19.163,0,0,1,7.372,7.259,21.732,21.732,0,0,1-.028,21.01,19.356,19.356,0,0,1-7.372,7.287,21.551,21.551,0,0,1-20.556,0Zm17.92-9.413a13.772,13.772,0,0,0,0-16.814,9.811,9.811,0,0,0-7.627-3.147,9.925,9.925,0,0,0-7.684,3.119,13.856,13.856,0,0,0,0,16.87,9.88,9.88,0,0,0,7.684,3.148A9.768,9.768,0,0,0,2877.2,808.344Z" transform="translate(-512.396 -0.153)"/>
    <path id="Path_4" data-name="Path 4" d="M2700.4,798.829a11.856,11.856,0,0,1-4.95,4.691,17.429,17.429,0,0,1-8.289,1.784h0a11.514,11.514,0,0,0-9.528,5.049l-6.416,9.456h0V779.4h15.944a18.15,18.15,0,0,1,8.173,1.669,11.48,11.48,0,0,1,5.008,4.6,13.385,13.385,0,0,1,1.67,6.734A13.02,13.02,0,0,1,2700.4,798.829Zm-9.785-2.676a5.758,5.758,0,0,0,0-7.483,5.875,5.875,0,0,0-4.2-1.324h-5.353v10.131h5.353A5.871,5.871,0,0,0,2690.612,796.153Z" transform="translate(-369.202)"/>
    <path id="Path_5" data-name="Path 5" d="M3107.627,798.829a11.852,11.852,0,0,1-4.95,4.691,17.423,17.423,0,0,1-8.288,1.784h0a11.515,11.515,0,0,0-9.528,5.049l-6.416,9.456h0V779.4h15.944a18.154,18.154,0,0,1,8.173,1.669,11.486,11.486,0,0,1,5.008,4.6,13.388,13.388,0,0,1,1.669,6.734A13.017,13.017,0,0,1,3107.627,798.829Zm-9.785-2.676a5.757,5.757,0,0,0,0-7.483,5.876,5.876,0,0,0-4.2-1.324h-5.353v10.131h5.353A5.871,5.871,0,0,0,3097.842,796.153Z" transform="translate(-697.007)"/>
  </g>
</svg>
