<svg xmlns="http://www.w3.org/2000/svg" viewBox="0 0 182.5 118.51"><g id="Layer_2" data-name="Layer 2"><g id="Layer_1-2" data-name="Layer 1"><g id="Group_1132" data-name="Group 1132"><path id="Path_371" data-name="Path 371" d="M128.15,96.45H89.81a13.92,13.92,0,0,0,4.46,9.66,14.1,14.1,0,0,0,9.84,3.64,12.15,12.15,0,0,0,11.84-7h11.2a22.57,22.57,0,0,1-8.25,11.34,24.11,24.11,0,0,1-14.79,4.41,25.59,25.59,0,0,1-12.89-3.23,23.05,23.05,0,0,1-8.92-9.11,27.84,27.84,0,0,1-3.23-13.62,28.5,28.5,0,0,1,3.14-13.61A22.14,22.14,0,0,1,91,69.86a26.27,26.27,0,0,1,13.07-3.19,25.58,25.58,0,0,1,12.65,3.11,21.87,21.87,0,0,1,8.66,8.69,26.2,26.2,0,0,1,3.09,12.89A32.11,32.11,0,0,1,128.15,96.45Zm-10.48-8.37a11.82,11.82,0,0,0-4.1-9.2,14.67,14.67,0,0,0-9.92-3.46,13.37,13.37,0,0,0-9.2,3.41,14.29,14.29,0,0,0-4.56,9.25Z"/><g id="Group_1130" data-name="Group 1130"><path id="Path_372" data-name="Path 372" d="M152.77,71.68a19.76,19.76,0,0,1,9-2,20.3,20.3,0,0,1,10.56,2.8,19.67,19.67,0,0,1,7.44,8,24.86,24.86,0,0,1,2.73,11.79,25.35,25.35,0,0,1-2.73,11.87,20.29,20.29,0,0,1-7.48,8.16,20.92,20.92,0,0,1-19.59.92,17.4,17.4,0,0,1-6.27-5.12v6.38h-9.11V60.57h9.11V76.92A17.27,17.27,0,0,1,152.77,71.68Zm18.55,12.64a12.85,12.85,0,0,0-5-5,13.35,13.35,0,0,0-6.6-1.72,12.92,12.92,0,0,0-6.51,1.76,13.12,13.12,0,0,0-5,5.12,15.94,15.94,0,0,0-1.88,7.92,16.16,16.16,0,0,0,1.88,8,13,13,0,0,0,11.47,6.92,12.74,12.74,0,0,0,6.6-1.8,13.14,13.14,0,0,0,5-5.23,16.4,16.4,0,0,0,1.88-8,15.65,15.65,0,0,0-1.88-7.87Z"/></g><path id="Path_373" data-name="Path 373" d="M53.15,106.54,39.3,66.67H28.55L47.2,115.6H59.27L77.83,66.67H67Z"/><path id="Path_374" data-name="Path 374" d="M103.06,35.89H64.73a13.89,13.89,0,0,0,4.46,9.65A14.06,14.06,0,0,0,79,49.18a12.15,12.15,0,0,0,11.84-7h11.2a22.66,22.66,0,0,1-8.23,11.31A24.14,24.14,0,0,1,79,57.9a25.55,25.55,0,0,1-12.88-3.23,23,23,0,0,1-8.92-9.11A27.81,27.81,0,0,1,54,32a28.52,28.52,0,0,1,3.14-13.62A22.08,22.08,0,0,1,66,9.27,26.27,26.27,0,0,1,79,6.08,25.53,25.53,0,0,1,91.7,9.18a21.87,21.87,0,0,1,8.65,8.7,26.16,26.16,0,0,1,3.09,12.88A31.47,31.47,0,0,1,103.06,35.89ZM92.59,27.51a11.85,11.85,0,0,0-4.1-9.2,14.7,14.7,0,0,0-9.93-3.46,13.39,13.39,0,0,0-9.2,3.41,14.35,14.35,0,0,0-4.55,9.25Z"/><g id="Group_1131" data-name="Group 1131"><path id="Path_375" data-name="Path 375" d="M29.72,11.11a19.7,19.7,0,0,0-9-2,20.3,20.3,0,0,0-10.56,2.8,19.71,19.71,0,0,0-7.43,8A24.94,24.94,0,0,0,0,31.63,25.48,25.48,0,0,0,2.74,43.5a20.4,20.4,0,0,0,7.47,8.16,19.83,19.83,0,0,0,10.52,2.92,20,20,0,0,0,9.08-2,17.5,17.5,0,0,0,6.27-5.12v6.37h9.11V0H36.08V16.35A17.3,17.3,0,0,0,29.72,11.11ZM11.17,23.75a12.92,12.92,0,0,1,5-5A13.44,13.44,0,0,1,22.72,17a12.9,12.9,0,0,1,6.52,1.77,13.1,13.1,0,0,1,5,5.11,16,16,0,0,1,1.88,7.92,16.22,16.22,0,0,1-1.88,8,13,13,0,0,1-18.07,5.12,13.3,13.3,0,0,1-5-5.24,16.49,16.49,0,0,1-1.88-8A15.81,15.81,0,0,1,11.17,23.75Z"/></g></g></g></g></svg>