<svg xmlns="http://www.w3.org/2000/svg" viewBox="0 0 500 500"><defs><style>.cls-1{fill:#fff;}</style></defs><g id="Layer_2" data-name="Layer 2"><g id="Layer_1-2" data-name="Layer 1"><rect width="500" height="500" rx="140.18"/><path class="cls-1" d="M382.61,130a165,165,0,0,0-117-48.46H158.52a58.38,58.38,0,0,0-58.38,58.38V354.08a58.38,58.38,0,0,0,58.38,58.38h40.66V180.58h65.66a67.45,67.45,0,0,1,48.22,19.94,66.43,66.43,0,0,1-47.46,112.9h0A41.36,41.36,0,0,0,227,340l-27.81,72.5H265.6A165.47,165.47,0,0,0,382.61,130Z"/></g></g></svg>