<svg xmlns="http://www.w3.org/2000/svg" viewBox="0 0 330.92 330.92"><defs><style>.cls-1{fill:#fff;}</style></defs><g id="Layer_2" data-name="Layer 2"><g id="Layer_1-2" data-name="Layer 1"><path class="cls-1" d="M282.46,48.46A165,165,0,0,0,165.46,0H58.38A58.38,58.38,0,0,0,0,58.38V272.54a58.38,58.38,0,0,0,58.38,58.38H99V99h65.65A67.41,67.41,0,0,1,212.91,119a66,66,0,0,1,18.94,44.19,66.43,66.43,0,0,1-66.39,68.71h0a41.34,41.34,0,0,0-38.61,26.54L99,330.92h66.42a165.46,165.46,0,0,0,117-282.46Z"/></g></g></svg>